<mxfile host="65bd71144e">
    <diagram id="ukkMosmh-r6SpEbxkxae" name="Page-1">
        <mxGraphModel dx="383" dy="702" grid="1" gridSize="10" guides="1" tooltips="1" connect="1" arrows="1" fold="1" page="1" pageScale="1" pageWidth="827" pageHeight="1169" math="0" shadow="0">
            <root>
                <mxCell id="0"/>
                <mxCell id="1" parent="0"/>
                <mxCell id="3" value="Pages" style="rounded=0;whiteSpace=wrap;html=1;" vertex="1" parent="1">
                    <mxGeometry x="330" y="80" width="70" height="60" as="geometry"/>
                </mxCell>
                <mxCell id="6" style="edgeStyle=none;html=1;exitX=0.5;exitY=1;exitDx=0;exitDy=0;" edge="1" parent="1" source="4" target="5">
                    <mxGeometry relative="1" as="geometry"/>
                </mxCell>
                <mxCell id="4" value="Main.jsx&lt;br&gt;" style="rounded=0;whiteSpace=wrap;html=1;" vertex="1" parent="1">
                    <mxGeometry x="310" y="220" width="120" height="40" as="geometry"/>
                </mxCell>
                <mxCell id="8" style="edgeStyle=none;html=1;exitX=0.5;exitY=1;exitDx=0;exitDy=0;entryX=0.5;entryY=0;entryDx=0;entryDy=0;" edge="1" parent="1" source="5" target="7">
                    <mxGeometry relative="1" as="geometry"/>
                </mxCell>
                <mxCell id="10" style="edgeStyle=none;html=1;exitX=1;exitY=0.5;exitDx=0;exitDy=0;entryX=0;entryY=0.5;entryDx=0;entryDy=0;" edge="1" parent="1" source="5" target="9">
                    <mxGeometry relative="1" as="geometry"/>
                </mxCell>
                <mxCell id="5" value="App.jxs" style="rounded=0;whiteSpace=wrap;html=1;" vertex="1" parent="1">
                    <mxGeometry x="310" y="310" width="120" height="40" as="geometry"/>
                </mxCell>
                <mxCell id="30" style="edgeStyle=none;html=1;exitX=0.5;exitY=1;exitDx=0;exitDy=0;" edge="1" parent="1" source="7" target="22">
                    <mxGeometry relative="1" as="geometry"/>
                </mxCell>
                <mxCell id="31" style="edgeStyle=none;html=1;exitX=0.5;exitY=1;exitDx=0;exitDy=0;entryX=0.683;entryY=0.05;entryDx=0;entryDy=0;entryPerimeter=0;" edge="1" parent="1" source="7" target="12">
                    <mxGeometry relative="1" as="geometry"/>
                </mxCell>
                <mxCell id="32" style="edgeStyle=none;html=1;exitX=0.5;exitY=1;exitDx=0;exitDy=0;entryX=0.5;entryY=0;entryDx=0;entryDy=0;" edge="1" parent="1" source="7" target="11">
                    <mxGeometry relative="1" as="geometry"/>
                </mxCell>
                <mxCell id="33" style="edgeStyle=none;html=1;exitX=0.5;exitY=1;exitDx=0;exitDy=0;entryX=0.642;entryY=0.05;entryDx=0;entryDy=0;entryPerimeter=0;" edge="1" parent="1" source="7" target="23">
                    <mxGeometry relative="1" as="geometry"/>
                </mxCell>
                <mxCell id="7" value="Landing.jxs" style="rounded=0;whiteSpace=wrap;html=1;" vertex="1" parent="1">
                    <mxGeometry x="310" y="400" width="120" height="40" as="geometry"/>
                </mxCell>
                <mxCell id="9" value="Error404.jxs" style="rounded=0;whiteSpace=wrap;html=1;" vertex="1" parent="1">
                    <mxGeometry x="520" y="310" width="120" height="40" as="geometry"/>
                </mxCell>
                <mxCell id="20" style="edgeStyle=none;html=1;" edge="1" parent="1" source="11" target="12">
                    <mxGeometry relative="1" as="geometry"/>
                </mxCell>
                <mxCell id="11" value="Signup.jxs" style="rounded=0;whiteSpace=wrap;html=1;" vertex="1" parent="1">
                    <mxGeometry x="50" y="490" width="120" height="40" as="geometry"/>
                </mxCell>
                <mxCell id="21" style="edgeStyle=none;html=1;exitX=0.5;exitY=1;exitDx=0;exitDy=0;" edge="1" parent="1" source="12" target="19">
                    <mxGeometry relative="1" as="geometry"/>
                </mxCell>
                <mxCell id="12" value="Login.jxs" style="rounded=0;whiteSpace=wrap;html=1;" vertex="1" parent="1">
                    <mxGeometry x="220" y="490" width="120" height="40" as="geometry"/>
                </mxCell>
                <mxCell id="38" style="edgeStyle=none;html=1;exitX=0.5;exitY=1;exitDx=0;exitDy=0;entryX=0.425;entryY=-0.05;entryDx=0;entryDy=0;entryPerimeter=0;" edge="1" parent="1" source="19" target="34">
                    <mxGeometry relative="1" as="geometry"/>
                </mxCell>
                <mxCell id="39" style="edgeStyle=none;html=1;exitX=0.5;exitY=1;exitDx=0;exitDy=0;entryX=0.75;entryY=0;entryDx=0;entryDy=0;" edge="1" parent="1" source="19" target="35">
                    <mxGeometry relative="1" as="geometry"/>
                </mxCell>
                <mxCell id="40" style="edgeStyle=none;html=1;exitX=0.5;exitY=1;exitDx=0;exitDy=0;entryX=0.5;entryY=0;entryDx=0;entryDy=0;" edge="1" parent="1" source="19" target="36">
                    <mxGeometry relative="1" as="geometry"/>
                </mxCell>
                <mxCell id="41" style="edgeStyle=none;html=1;exitX=0.5;exitY=1;exitDx=0;exitDy=0;entryX=0.5;entryY=0;entryDx=0;entryDy=0;" edge="1" parent="1" source="19" target="37">
                    <mxGeometry relative="1" as="geometry"/>
                </mxCell>
                <mxCell id="19" value="GalleryCategories.jxs" style="rounded=0;whiteSpace=wrap;html=1;" vertex="1" parent="1">
                    <mxGeometry x="220" y="585" width="120" height="40" as="geometry"/>
                </mxCell>
                <mxCell id="22" value="Evenement.jxs" style="rounded=0;whiteSpace=wrap;html=1;" vertex="1" parent="1">
                    <mxGeometry x="370" y="490" width="120" height="40" as="geometry"/>
                </mxCell>
                <mxCell id="23" value="Contact.jxs" style="rounded=0;whiteSpace=wrap;html=1;" vertex="1" parent="1">
                    <mxGeometry x="520" y="490" width="120" height="40" as="geometry"/>
                </mxCell>
                <mxCell id="34" value="RIders.jxs" style="rounded=0;whiteSpace=wrap;html=1;" vertex="1" parent="1">
                    <mxGeometry x="25" y="690" width="120" height="40" as="geometry"/>
                </mxCell>
                <mxCell id="35" value="Dogs.jxs" style="rounded=0;whiteSpace=wrap;html=1;" vertex="1" parent="1">
                    <mxGeometry x="190" y="690" width="120" height="40" as="geometry"/>
                </mxCell>
                <mxCell id="36" value="Horses.jxs" style="rounded=0;whiteSpace=wrap;html=1;" vertex="1" parent="1">
                    <mxGeometry x="354" y="690" width="120" height="40" as="geometry"/>
                </mxCell>
                <mxCell id="37" value="LeatherGoods.jxs" style="rounded=0;whiteSpace=wrap;html=1;" vertex="1" parent="1">
                    <mxGeometry x="510" y="690" width="120" height="40" as="geometry"/>
                </mxCell>
                <mxCell id="42" value="Composants" style="rounded=0;whiteSpace=wrap;html=1;" vertex="1" parent="1">
                    <mxGeometry x="320" y="790" width="120" height="40" as="geometry"/>
                </mxCell>
                <mxCell id="44" value="Landing.jxs" style="swimlane;" vertex="1" parent="1">
                    <mxGeometry x="20" y="860" width="130" height="290" as="geometry">
                        <mxRectangle x="140" y="870" width="110" height="30" as="alternateBounds"/>
                    </mxGeometry>
                </mxCell>
                <mxCell id="47" value="LandingNavbar.jsx" style="text;html=1;align=center;verticalAlign=middle;resizable=0;points=[];autosize=1;strokeColor=none;fillColor=none;" vertex="1" parent="44">
                    <mxGeometry x="5" y="75" width="120" height="30" as="geometry"/>
                </mxCell>
                <mxCell id="48" value="Banner.jsx" style="text;html=1;align=center;verticalAlign=middle;resizable=0;points=[];autosize=1;strokeColor=none;fillColor=none;" vertex="1" parent="44">
                    <mxGeometry x="30" y="105" width="80" height="30" as="geometry"/>
                </mxCell>
                <mxCell id="45" value="Header.jsx" style="text;html=1;align=center;verticalAlign=middle;resizable=0;points=[];autosize=1;strokeColor=none;fillColor=none;" vertex="1" parent="44">
                    <mxGeometry x="25" y="45" width="80" height="30" as="geometry"/>
                </mxCell>
                <mxCell id="51" value="Presentation.jsx" style="text;html=1;align=center;verticalAlign=middle;resizable=0;points=[];autosize=1;strokeColor=none;fillColor=none;" vertex="1" parent="44">
                    <mxGeometry x="10" y="135" width="110" height="30" as="geometry"/>
                </mxCell>
                <mxCell id="52" value="Button.jsx" style="text;html=1;align=center;verticalAlign=middle;resizable=0;points=[];autosize=1;strokeColor=none;fillColor=none;" vertex="1" parent="44">
                    <mxGeometry x="25" y="165" width="80" height="30" as="geometry"/>
                </mxCell>
                <mxCell id="53" value="About.jsx" style="text;html=1;align=center;verticalAlign=middle;resizable=0;points=[];autosize=1;strokeColor=none;fillColor=none;" vertex="1" parent="44">
                    <mxGeometry x="30" y="195" width="70" height="30" as="geometry"/>
                </mxCell>
                <mxCell id="54" value="LandingGallery.jsx" style="text;html=1;align=center;verticalAlign=middle;resizable=0;points=[];autosize=1;strokeColor=none;fillColor=none;" vertex="1" parent="44">
                    <mxGeometry x="5" y="225" width="120" height="30" as="geometry"/>
                </mxCell>
                <mxCell id="58" value="Footer.jsx" style="text;html=1;align=center;verticalAlign=middle;resizable=0;points=[];autosize=1;strokeColor=none;fillColor=none;" vertex="1" parent="44">
                    <mxGeometry x="25" y="255" width="80" height="30" as="geometry"/>
                </mxCell>
                <mxCell id="59" value="Signup.jxs" style="swimlane;" vertex="1" parent="1">
                    <mxGeometry x="190" y="860" width="130" height="200" as="geometry">
                        <mxRectangle x="140" y="870" width="110" height="30" as="alternateBounds"/>
                    </mxGeometry>
                </mxCell>
                <mxCell id="60" value="LandingNavbar.jsx" style="text;html=1;align=center;verticalAlign=middle;resizable=0;points=[];autosize=1;strokeColor=none;fillColor=none;" vertex="1" parent="59">
                    <mxGeometry x="5" y="75" width="120" height="30" as="geometry"/>
                </mxCell>
                <mxCell id="61" value="SignupForm.jsx" style="text;html=1;align=center;verticalAlign=middle;resizable=0;points=[];autosize=1;strokeColor=none;fillColor=none;" vertex="1" parent="59">
                    <mxGeometry x="15" y="105" width="110" height="30" as="geometry"/>
                </mxCell>
                <mxCell id="62" value="Header.jsx" style="text;html=1;align=center;verticalAlign=middle;resizable=0;points=[];autosize=1;strokeColor=none;fillColor=none;" vertex="1" parent="59">
                    <mxGeometry x="25" y="45" width="80" height="30" as="geometry"/>
                </mxCell>
                <mxCell id="64" value="Button.jsx" style="text;html=1;align=center;verticalAlign=middle;resizable=0;points=[];autosize=1;strokeColor=none;fillColor=none;" vertex="1" parent="59">
                    <mxGeometry x="30" y="135" width="80" height="30" as="geometry"/>
                </mxCell>
                <mxCell id="67" value="Footer.jsx" style="text;html=1;align=center;verticalAlign=middle;resizable=0;points=[];autosize=1;strokeColor=none;fillColor=none;" vertex="1" parent="59">
                    <mxGeometry x="30" y="165" width="80" height="30" as="geometry"/>
                </mxCell>
                <mxCell id="68" value="Login.jxs" style="swimlane;" vertex="1" parent="1">
                    <mxGeometry x="360" y="860" width="130" height="200" as="geometry">
                        <mxRectangle x="140" y="870" width="110" height="30" as="alternateBounds"/>
                    </mxGeometry>
                </mxCell>
                <mxCell id="69" value="LandingNavbar.jsx" style="text;html=1;align=center;verticalAlign=middle;resizable=0;points=[];autosize=1;strokeColor=none;fillColor=none;" vertex="1" parent="68">
                    <mxGeometry x="5" y="75" width="120" height="30" as="geometry"/>
                </mxCell>
                <mxCell id="70" value="LoginForm.jsx" style="text;html=1;align=center;verticalAlign=middle;resizable=0;points=[];autosize=1;strokeColor=none;fillColor=none;" vertex="1" parent="68">
                    <mxGeometry x="20" y="105" width="100" height="30" as="geometry"/>
                </mxCell>
                <mxCell id="71" value="Header.jsx" style="text;html=1;align=center;verticalAlign=middle;resizable=0;points=[];autosize=1;strokeColor=none;fillColor=none;" vertex="1" parent="68">
                    <mxGeometry x="25" y="45" width="80" height="30" as="geometry"/>
                </mxCell>
                <mxCell id="72" value="Button.jsx" style="text;html=1;align=center;verticalAlign=middle;resizable=0;points=[];autosize=1;strokeColor=none;fillColor=none;" vertex="1" parent="68">
                    <mxGeometry x="30" y="135" width="80" height="30" as="geometry"/>
                </mxCell>
                <mxCell id="73" value="Footer.jsx" style="text;html=1;align=center;verticalAlign=middle;resizable=0;points=[];autosize=1;strokeColor=none;fillColor=none;" vertex="1" parent="68">
                    <mxGeometry x="30" y="165" width="80" height="30" as="geometry"/>
                </mxCell>
                <mxCell id="74" value="Evenement.jxs" style="swimlane;" vertex="1" parent="1">
                    <mxGeometry x="530" y="860" width="130" height="170" as="geometry">
                        <mxRectangle x="140" y="870" width="110" height="30" as="alternateBounds"/>
                    </mxGeometry>
                </mxCell>
                <mxCell id="75" value="LandingNavbar.jsx" style="text;html=1;align=center;verticalAlign=middle;resizable=0;points=[];autosize=1;strokeColor=none;fillColor=none;" vertex="1" parent="74">
                    <mxGeometry x="5" y="75" width="120" height="30" as="geometry"/>
                </mxCell>
                <mxCell id="77" value="Header.jsx" style="text;html=1;align=center;verticalAlign=middle;resizable=0;points=[];autosize=1;strokeColor=none;fillColor=none;" vertex="1" parent="74">
                    <mxGeometry x="25" y="45" width="80" height="30" as="geometry"/>
                </mxCell>
                <mxCell id="78" value="EvenementList.jsx" style="text;html=1;align=center;verticalAlign=middle;resizable=0;points=[];autosize=1;strokeColor=none;fillColor=none;" vertex="1" parent="74">
                    <mxGeometry x="10" y="105" width="120" height="30" as="geometry"/>
                </mxCell>
                <mxCell id="79" value="Footer.jsx" style="text;html=1;align=center;verticalAlign=middle;resizable=0;points=[];autosize=1;strokeColor=none;fillColor=none;" vertex="1" parent="74">
                    <mxGeometry x="30" y="135" width="80" height="30" as="geometry"/>
                </mxCell>
                <mxCell id="81" value="Contact.jxs" style="swimlane;" vertex="1" parent="1">
                    <mxGeometry x="20" y="1180" width="130" height="150" as="geometry">
                        <mxRectangle x="140" y="870" width="110" height="30" as="alternateBounds"/>
                    </mxGeometry>
                </mxCell>
                <mxCell id="82" value="LandingNavbar.jsx" style="text;html=1;align=center;verticalAlign=middle;resizable=0;points=[];autosize=1;strokeColor=none;fillColor=none;" vertex="1" parent="81">
                    <mxGeometry x="5" y="60" width="120" height="30" as="geometry"/>
                </mxCell>
                <mxCell id="83" value="Header.jsx" style="text;html=1;align=center;verticalAlign=middle;resizable=0;points=[];autosize=1;strokeColor=none;fillColor=none;" vertex="1" parent="81">
                    <mxGeometry x="25" y="30" width="80" height="30" as="geometry"/>
                </mxCell>
                <mxCell id="84" value="ContactMe.jsx" style="text;html=1;align=center;verticalAlign=middle;resizable=0;points=[];autosize=1;strokeColor=none;fillColor=none;" vertex="1" parent="81">
                    <mxGeometry x="20" y="90" width="100" height="30" as="geometry"/>
                </mxCell>
                <mxCell id="85" value="Footer.jsx" style="text;html=1;align=center;verticalAlign=middle;resizable=0;points=[];autosize=1;strokeColor=none;fillColor=none;" vertex="1" parent="81">
                    <mxGeometry x="30" y="120" width="80" height="30" as="geometry"/>
                </mxCell>
                <mxCell id="86" value="GalleryCategories.jxs" style="swimlane;" vertex="1" parent="1">
                    <mxGeometry x="180" y="1180" width="130" height="150" as="geometry">
                        <mxRectangle x="140" y="870" width="110" height="30" as="alternateBounds"/>
                    </mxGeometry>
                </mxCell>
                <mxCell id="87" value="NavBar.jsx" style="text;html=1;align=center;verticalAlign=middle;resizable=0;points=[];autosize=1;strokeColor=none;fillColor=none;" vertex="1" parent="86">
                    <mxGeometry x="25" y="60" width="80" height="30" as="geometry"/>
                </mxCell>
                <mxCell id="88" value="Header.jsx" style="text;html=1;align=center;verticalAlign=middle;resizable=0;points=[];autosize=1;strokeColor=none;fillColor=none;" vertex="1" parent="86">
                    <mxGeometry x="25" y="30" width="80" height="30" as="geometry"/>
                </mxCell>
                <mxCell id="89" value="CategoryList.jsx" style="text;html=1;align=center;verticalAlign=middle;resizable=0;points=[];autosize=1;strokeColor=none;fillColor=none;" vertex="1" parent="86">
                    <mxGeometry x="15" y="90" width="110" height="30" as="geometry"/>
                </mxCell>
                <mxCell id="90" value="Footer.jsx" style="text;html=1;align=center;verticalAlign=middle;resizable=0;points=[];autosize=1;strokeColor=none;fillColor=none;" vertex="1" parent="86">
                    <mxGeometry x="30" y="120" width="80" height="30" as="geometry"/>
                </mxCell>
                <mxCell id="92" value="Riders.jxs" style="swimlane;" vertex="1" parent="1">
                    <mxGeometry x="349" y="1180" width="130" height="150" as="geometry">
                        <mxRectangle x="140" y="870" width="110" height="30" as="alternateBounds"/>
                    </mxGeometry>
                </mxCell>
                <mxCell id="93" value="NavBar.jsx" style="text;html=1;align=center;verticalAlign=middle;resizable=0;points=[];autosize=1;strokeColor=none;fillColor=none;" vertex="1" parent="92">
                    <mxGeometry x="25" y="60" width="80" height="30" as="geometry"/>
                </mxCell>
                <mxCell id="94" value="Header.jsx" style="text;html=1;align=center;verticalAlign=middle;resizable=0;points=[];autosize=1;strokeColor=none;fillColor=none;" vertex="1" parent="92">
                    <mxGeometry x="25" y="30" width="80" height="30" as="geometry"/>
                </mxCell>
                <mxCell id="95" value="RidersGallery.jsx" style="text;html=1;align=center;verticalAlign=middle;resizable=0;points=[];autosize=1;strokeColor=none;fillColor=none;" vertex="1" parent="92">
                    <mxGeometry x="15" y="90" width="110" height="30" as="geometry"/>
                </mxCell>
                <mxCell id="96" value="Footer.jsx" style="text;html=1;align=center;verticalAlign=middle;resizable=0;points=[];autosize=1;strokeColor=none;fillColor=none;" vertex="1" parent="92">
                    <mxGeometry x="30" y="120" width="80" height="30" as="geometry"/>
                </mxCell>
                <mxCell id="97" value="Dogs.jxs" style="swimlane;" vertex="1" parent="1">
                    <mxGeometry x="510" y="1180" width="130" height="150" as="geometry">
                        <mxRectangle x="140" y="870" width="110" height="30" as="alternateBounds"/>
                    </mxGeometry>
                </mxCell>
                <mxCell id="98" value="NavBar.jsx" style="text;html=1;align=center;verticalAlign=middle;resizable=0;points=[];autosize=1;strokeColor=none;fillColor=none;" vertex="1" parent="97">
                    <mxGeometry x="25" y="60" width="80" height="30" as="geometry"/>
                </mxCell>
                <mxCell id="99" value="Header.jsx" style="text;html=1;align=center;verticalAlign=middle;resizable=0;points=[];autosize=1;strokeColor=none;fillColor=none;" vertex="1" parent="97">
                    <mxGeometry x="25" y="30" width="80" height="30" as="geometry"/>
                </mxCell>
                <mxCell id="100" value="DogsGallery.jsx" style="text;html=1;align=center;verticalAlign=middle;resizable=0;points=[];autosize=1;strokeColor=none;fillColor=none;" vertex="1" parent="97">
                    <mxGeometry x="15" y="90" width="110" height="30" as="geometry"/>
                </mxCell>
                <mxCell id="101" value="Footer.jsx" style="text;html=1;align=center;verticalAlign=middle;resizable=0;points=[];autosize=1;strokeColor=none;fillColor=none;" vertex="1" parent="97">
                    <mxGeometry x="30" y="120" width="80" height="30" as="geometry"/>
                </mxCell>
                <mxCell id="102" value="LeatherGoods.jxs" style="swimlane;" vertex="1" parent="1">
                    <mxGeometry x="670" y="1180" width="150" height="150" as="geometry">
                        <mxRectangle x="140" y="870" width="110" height="30" as="alternateBounds"/>
                    </mxGeometry>
                </mxCell>
                <mxCell id="103" value="NavBar.jsx" style="text;html=1;align=center;verticalAlign=middle;resizable=0;points=[];autosize=1;strokeColor=none;fillColor=none;" vertex="1" parent="102">
                    <mxGeometry x="25" y="60" width="80" height="30" as="geometry"/>
                </mxCell>
                <mxCell id="104" value="Header.jsx" style="text;html=1;align=center;verticalAlign=middle;resizable=0;points=[];autosize=1;strokeColor=none;fillColor=none;" vertex="1" parent="102">
                    <mxGeometry x="25" y="30" width="80" height="30" as="geometry"/>
                </mxCell>
                <mxCell id="105" value="&lt;span style=&quot;font-weight: 700;&quot;&gt;LeatherGoods&lt;/span&gt;Gallery.jsx" style="text;html=1;align=center;verticalAlign=middle;resizable=0;points=[];autosize=1;strokeColor=none;fillColor=none;" vertex="1" parent="102">
                    <mxGeometry x="-10" y="90" width="160" height="30" as="geometry"/>
                </mxCell>
                <mxCell id="106" value="Footer.jsx" style="text;html=1;align=center;verticalAlign=middle;resizable=0;points=[];autosize=1;strokeColor=none;fillColor=none;" vertex="1" parent="102">
                    <mxGeometry x="30" y="120" width="80" height="30" as="geometry"/>
                </mxCell>
                <mxCell id="107" value="Horses.jxs" style="swimlane;" vertex="1" parent="1">
                    <mxGeometry x="90" y="1380" width="150" height="150" as="geometry">
                        <mxRectangle x="140" y="870" width="110" height="30" as="alternateBounds"/>
                    </mxGeometry>
                </mxCell>
                <mxCell id="108" value="NavBar.jsx" style="text;html=1;align=center;verticalAlign=middle;resizable=0;points=[];autosize=1;strokeColor=none;fillColor=none;" vertex="1" parent="107">
                    <mxGeometry x="25" y="60" width="80" height="30" as="geometry"/>
                </mxCell>
                <mxCell id="109" value="Header.jsx" style="text;html=1;align=center;verticalAlign=middle;resizable=0;points=[];autosize=1;strokeColor=none;fillColor=none;" vertex="1" parent="107">
                    <mxGeometry x="25" y="30" width="80" height="30" as="geometry"/>
                </mxCell>
                <mxCell id="110" value="&lt;b&gt;Horses&lt;/b&gt;Gallery.jsx" style="text;html=1;align=center;verticalAlign=middle;resizable=0;points=[];autosize=1;strokeColor=none;fillColor=none;" vertex="1" parent="107">
                    <mxGeometry x="10" y="90" width="120" height="30" as="geometry"/>
                </mxCell>
                <mxCell id="111" value="Footer.jsx" style="text;html=1;align=center;verticalAlign=middle;resizable=0;points=[];autosize=1;strokeColor=none;fillColor=none;" vertex="1" parent="107">
                    <mxGeometry x="30" y="120" width="80" height="30" as="geometry"/>
                </mxCell>
            </root>
        </mxGraphModel>
    </diagram>
</mxfile>